<?xml version="1.0" encoding="UTF-8"?>
<svg version="1.1" xmlns="http://www.w3.org/2000/svg" width="1024" height="1024">
<path d="M0 0 C337.92 0 675.84 0 1024 0 C1024 337.92 1024 675.84 1024 1024 C686.08 1024 348.16 1024 0 1024 C0 686.08 0 348.16 0 0 Z " fill="#FAFAFA" transform="translate(0,0)"/>
<path d="M0 0 C0.66966797 -0.020625 1.33933594 -0.04125 2.02929688 -0.0625 C11.1556713 -0.13223352 18.35658927 3.54482347 26 8.1875 C27.6731365 9.17805265 29.34767302 10.1662435 31.0234375 11.15234375 C31.88936523 11.66265137 32.75529297 12.17295898 33.64746094 12.69873047 C41.75570748 17.41838955 50.02659445 21.85187067 58.3125 26.25 C59.17649414 26.70874512 60.04048828 27.16749023 60.93066406 27.64013672 C86.35602893 41.01759754 113.33192178 51.47712565 140.3125 61.25 C140.97254028 61.48934265 141.63258057 61.7286853 142.31262207 61.97528076 C194.0801002 80.6951157 247.60651473 94.39478967 302.46508789 99.81933594 C317.91760419 101.39019001 328.2661902 104.64166073 338.55078125 116.78515625 C348.50693437 130.71494032 345.46275326 152.19910168 345.4453125 168.4609375 C345.445989 170.71782441 345.44696187 172.97471124 345.44821167 175.2315979 C345.44968024 179.96023249 345.44756648 184.68884811 345.44287109 189.41748047 C345.43725853 195.3457488 345.44050467 201.27397143 345.44630432 207.20223808 C345.50851048 281.84249955 345.50851048 281.84249955 343.0625 313.375 C342.99969849 314.21713043 342.93689697 315.05926086 342.87219238 315.9269104 C337.44040349 388.04280572 322.49593683 460.26127705 292.3125 526.25 C291.88211426 527.19584961 291.45172852 528.14169922 291.00830078 529.11621094 C274.93847034 564.21124294 254.12475066 596.68919792 229.3125 626.25 C228.45300593 627.28505739 227.59363624 628.32021807 226.734375 629.35546875 C216.64969489 641.44660038 205.88982134 652.84548828 194.73828125 663.95458984 C193.04568653 665.64175958 191.35859403 667.33430196 189.671875 669.02734375 C184.05496045 674.64800408 178.39461988 680.12784604 172.3125 685.25 C171.32507813 686.10722656 170.33765625 686.96445312 169.3203125 687.84765625 C154.58797088 700.44400796 139.12591124 712.05156237 123.3125 723.25 C122.45760986 723.85787354 122.45760986 723.85787354 121.58544922 724.47802734 C90.74276991 746.35690492 57.89334397 764.96143286 24.3125 782.25 C23.6117334 782.61206543 22.9109668 782.97413086 22.18896484 783.34716797 C13.99163876 787.57354531 8.36848128 789.44279762 -0.8125 789.5 C-2.0190625 789.5309375 -2.0190625 789.5309375 -3.25 789.5625 C-14.46799561 789.63418048 -23.3660828 785.21808689 -33.125 780.0625 C-34.29369629 779.45027588 -35.46239258 778.83805176 -36.66650391 778.20727539 C-49.62299744 771.36930754 -62.18041154 763.87508888 -74.6875 756.25 C-75.67073242 755.6523584 -76.65396484 755.0547168 -77.66699219 754.43896484 C-88.22182984 748.01043723 -98.66533692 741.44010446 -108.87939453 734.48144531 C-110.74801509 733.20878502 -112.62200657 731.94428067 -114.49609375 730.6796875 C-131.21447065 719.34713843 -147.26385151 707.28988937 -162.6875 694.25 C-163.30995605 693.72664062 -163.93241211 693.20328125 -164.57373047 692.6640625 C-177.38267429 681.88334396 -189.5789574 670.53404173 -201.39208984 658.67578125 C-203.07925958 656.98318653 -204.77180196 655.29609403 -206.46484375 653.609375 C-212.08088038 647.99754357 -217.59389377 642.34713716 -222.6875 636.25 C-223.51894531 635.26265869 -223.51894531 635.26265869 -224.3671875 634.25537109 C-236.51459466 619.74558379 -247.97489452 604.85012033 -258.6875 589.25 C-259.13174316 588.60675781 -259.57598633 587.96351563 -260.03369141 587.30078125 C-318.79597071 501.55514616 -337.29240234 396.02062557 -346.8125 231.625 C-346.81061676 230.75321106 -346.80873352 229.88142212 -346.80679321 228.98321533 C-346.79151643 222.70922911 -346.75606578 216.43547725 -346.71356201 210.16162109 C-346.69501617 207.37809395 -346.67756159 204.59457606 -346.66143799 201.81103516 C-346.60765029 192.64085154 -346.53992635 183.47094238 -346.44857025 174.30105019 C-346.40624361 170.05038741 -346.36823963 165.79980401 -346.34161377 161.54901123 C-346.31570672 157.49259091 -346.2752716 153.43655312 -346.22443962 149.38037109 C-346.20786708 147.87270732 -346.19618864 146.36498031 -346.18985176 144.85723877 C-346.1228005 130.39039134 -343.99413414 121.23014501 -334.09765625 110.53125 C-326.34008466 103.09612026 -316.01321883 100.68989562 -305.625 99.9375 C-277.10975 97.23182923 -248.48838548 91.03601284 -220.6875 84.25 C-220.03185059 84.09118347 -219.37620117 83.93236694 -218.70068359 83.76873779 C-180.18989514 74.42315041 -142.33248533 62.3568543 -105.6875 47.25 C-104.51703125 46.76998535 -103.3465625 46.2899707 -102.140625 45.79541016 C-77.577626 35.66114419 -53.72158356 24.40017366 -30.703125 11.11328125 C-11.55569632 0.08647855 -11.55569632 0.08647855 0 0 Z " fill="#79C08C" transform="translate(512.6875,116.75)"/>
<path d="M0 0 C1.80164282 -0.0045684 3.6032839 -0.00987593 5.40492249 -0.0158844 C9.16967882 -0.02478815 12.93422271 -0.02242359 16.69897461 -0.01245117 C21.50150538 -0.00096357 26.3033006 -0.0211837 31.10573483 -0.05036831 C34.82317185 -0.06879479 38.54043468 -0.06842508 42.25790596 -0.06273079 C44.02757359 -0.06257837 45.79725363 -0.06855641 47.56687737 -0.08102226 C59.33816519 -0.15227573 69.85703819 0.13464183 79 8.5859375 C83.30863902 13.77165317 86.66410629 20.72361044 86.65541077 27.51481628 C86.65747276 28.75788292 86.65747276 28.75788292 86.65957642 30.02606201 C86.65598114 30.93164856 86.65238586 31.83723511 86.64868164 32.77026367 C86.64882767 33.72655167 86.64897369 34.68283966 86.64912415 35.66810608 C86.64842669 38.83344785 86.64064205 41.99873099 86.6328125 45.1640625 C86.63094773 47.3569587 86.6295241 49.54985531 86.62852478 51.74275208 C86.62470427 57.51806791 86.61487793 63.29335864 86.6038208 69.06866455 C86.59359669 74.96048646 86.58902501 80.85231241 86.58398438 86.74414062 C86.57325527 98.3073027 86.5561844 109.87044614 86.53515625 121.43359375 C87.79525513 121.42915253 89.055354 121.4247113 90.3536377 121.4201355 C102.24178014 121.37955295 114.12990849 121.3495918 126.01810455 121.32996941 C132.12961214 121.31954216 138.24106371 121.30540217 144.35253906 121.28271484 C150.2528895 121.26094889 156.15318612 121.24901716 162.05357361 121.24383926 C164.30216824 121.24015026 166.55076 121.23294658 168.79933167 121.22213364 C171.95417597 121.20756901 175.10879924 121.20561791 178.26367188 121.20654297 C179.65119156 121.19575714 179.65119156 121.19575714 181.06674194 121.18475342 C189.9873257 121.2129684 197.50096285 122.48556014 204.1328125 129.00390625 C210.03981836 135.4769397 211.98771128 141.45236154 211.95507812 150.0559082 C211.96354767 150.8894281 211.97201721 151.722948 211.98074341 152.58172607 C212.00402333 155.32026697 212.00513759 158.05824289 212.00390625 160.796875 C212.01101415 162.71347779 212.01871406 164.63007848 212.02697754 166.54667664 C212.04040234 170.55876584 212.0420005 174.57065834 212.03613281 178.58276367 C212.03024398 183.7038174 212.06080394 188.82392072 212.10124969 193.94479084 C212.12720405 197.90243035 212.129997 201.85984351 212.12635803 205.81755638 C212.12804258 207.70446342 212.13762057 209.59138167 212.15550232 211.47820473 C212.33188075 232.39197381 212.33188075 232.39197381 204.73034668 240.31465149 C196.8083206 247.58827453 189.91033525 248.58667188 179.51245117 248.54711914 C178.00442932 248.54733818 178.00442932 248.54733818 176.46594238 248.54756165 C173.14914783 248.54686603 169.83240972 248.53909 166.515625 248.53125 C164.21348603 248.52938458 161.91134666 248.52796126 159.60920715 248.52696228 C153.55444235 248.52314691 147.4997016 248.51332495 141.44494629 248.5022583 C135.26473313 248.49202314 129.08451607 248.48746015 122.90429688 248.48242188 C110.78123944 248.47170183 98.65819985 248.45463714 86.53515625 248.43359375 C86.5440387 249.67894394 86.55292114 250.92429413 86.56207275 252.2073822 C86.64327679 263.96272761 86.70317852 275.71801585 86.74240494 287.47357845 C86.76324984 293.51676593 86.79151137 299.55972637 86.83691406 305.6027832 C86.88048155 311.43831669 86.90431665 317.27363225 86.91466522 323.10931587 C86.92203697 325.33199047 86.93643223 327.55465359 86.95807648 329.77723503 C86.98725478 332.89854269 86.99110615 336.01895803 86.98925781 339.14038086 C87.00363892 340.05244797 87.01802002 340.96451508 87.03283691 341.90422058 C86.97622992 350.78032143 83.85956596 358.14240868 77.62805176 364.50245667 C68.50220771 372.92297064 57.96848359 372.15657806 46.31640625 372.0625 C44.44893251 372.06333014 42.58145886 372.065795 40.71398926 372.06980896 C36.81382057 372.07265628 32.91422953 372.05807054 29.01416016 372.03051758 C24.03785255 371.99643676 19.06257681 372.00246329 14.08621979 372.02118015 C10.23406513 372.03179494 6.38214678 372.02277181 2.53001404 372.00779533 C0.69616906 372.00264588 -1.13770092 372.00305559 -2.97154236 372.00934029 C-25.00730925 372.05652273 -25.00730925 372.05652273 -33.83984375 364.24609375 C-34.44570313 363.73691406 -35.0515625 363.22773437 -35.67578125 362.703125 C-40.94059038 356.02440425 -42.04717523 349.25603734 -41.91894531 340.95678711 C-41.91952942 339.9508551 -41.92011353 338.9449231 -41.92071533 337.9085083 C-41.91794849 334.61312266 -41.88692228 331.31866337 -41.85546875 328.0234375 C-41.8480014 325.7270202 -41.8423108 323.4305965 -41.83831787 321.13417053 C-41.82310061 315.11217421 -41.78385219 309.09056842 -41.73950195 303.06872559 C-41.698465 296.91501141 -41.68028887 290.76123367 -41.66015625 284.60742188 C-41.61735439 272.5493083 -41.54915029 260.4914836 -41.46484375 248.43359375 C-42.73302948 248.4424762 -44.00121521 248.45135864 -45.30783081 248.46051025 C-57.28360785 248.5417437 -69.25932867 248.60163008 -81.23531914 248.64084244 C-87.39169714 248.66167991 -93.54785197 248.6899278 -99.70410156 248.73535156 C-105.64986477 248.77894563 -111.59541387 248.80275972 -117.54132462 248.81310272 C-119.80503838 248.82046972 -122.06874099 248.83485561 -124.33236313 248.85651398 C-127.51333307 248.88572762 -130.69342833 248.88954218 -133.87451172 248.88769531 C-134.80168503 248.90207642 -135.72885834 248.91645752 -136.68412781 248.93127441 C-144.94127784 248.87970353 -152.1437786 246.81020343 -158.33984375 241.18359375 C-163.30708818 236.14146624 -165.89848489 230.03770654 -166.00695801 223.01707458 C-165.99481262 221.86115562 -165.99481262 221.86115562 -165.98242188 220.68188477 C-165.98943115 219.84661255 -165.99644043 219.01134033 -166.00366211 218.15075684 C-166.0211464 215.41265788 -166.0096527 212.67560794 -165.99609375 209.9375 C-165.99879167 208.01993107 -166.00267659 206.10236347 -166.00769043 204.18479919 C-166.01357275 200.17441731 -166.00506438 196.16439291 -165.98632812 192.15405273 C-165.96355485 187.03189616 -165.97665949 181.91057883 -166.00061798 176.7884531 C-166.01512344 172.83084374 -166.01044799 168.87343088 -166.00010681 164.91581535 C-165.99745183 163.02810503 -166.00066571 161.14037645 -166.01002502 159.25268745 C-166.05386731 147.92465207 -165.74331448 139.79017884 -159.27734375 130.18359375 C-153.62464488 124.65651041 -147.06814655 121.30354042 -139.11151123 121.31333923 C-138.24776886 121.31196457 -137.38402649 121.3105899 -136.49411011 121.30917358 C-135.55471588 121.31276886 -134.61532166 121.31636414 -133.64746094 121.32006836 C-132.65201263 121.31992233 -131.65656433 121.31977631 -130.63095093 121.31962585 C-127.34118469 121.32032243 -124.0514751 121.32810295 -120.76171875 121.3359375 C-118.48057079 121.33780258 -116.19942243 121.33922606 -113.91827393 121.34022522 C-107.91445815 121.34404327 -101.91066657 121.35386751 -95.90686035 121.3649292 C-89.78035815 121.3751586 -83.65385203 121.37972612 -77.52734375 121.38476562 C-65.50649979 121.39549039 -53.48567378 121.4125583 -41.46484375 121.43359375 C-41.47594681 120.20299225 -41.48704987 118.97239075 -41.49848938 117.70449829 C-41.60004433 106.08194081 -41.67489515 94.45947389 -41.72390461 82.83657265 C-41.74994839 76.86172554 -41.78525175 70.88723791 -41.84204102 64.91259766 C-41.89654589 59.141885 -41.92630351 53.37151715 -41.93922997 47.60056686 C-41.94843664 45.40381827 -41.96641507 43.20708759 -41.99349403 41.0104866 C-42.03002922 37.92276133 -42.03477879 34.83644334 -42.0324707 31.74853516 C-42.05044708 30.84941406 -42.06842346 29.95029297 -42.08694458 29.02392578 C-42.02366768 21.15116705 -39.29344888 14.89708653 -34.32421875 8.8125 C-33.628125 8.21308594 -32.93203125 7.61367188 -32.21484375 6.99609375 C-31.5290625 6.37863281 -30.84328125 5.76117188 -30.13671875 5.125 C-20.82122223 -0.77209063 -10.59559361 -0.0235726 0 0 Z " fill="#FAFAFA" transform="translate(489.46484375,314.56640625)"/>
<path d="M0 0 C35.31 0.33 70.62 0.66 107 1 C107 35.32 107 69.64 107 105 C105 103 105 103 104.75390434 101.19216728 C104.75666972 100.08878108 104.75666972 100.08878108 104.75949097 98.96310425 C104.75674164 98.11893951 104.75399231 97.27477478 104.75115967 96.4050293 C104.7619455 95.01320435 104.7619455 95.01320435 104.77294922 93.59326172 C104.77265717 92.61761261 104.77236511 91.6419635 104.77206421 90.63674927 C104.77346132 87.40097259 104.78904049 84.16542412 104.8046875 80.9296875 C104.80841627 78.69052252 104.81126388 76.45135591 104.81326294 74.21218872 C104.82091008 68.3102368 104.84056785 62.40838286 104.8626709 56.50646973 C104.88310608 50.48739955 104.89225967 44.46831359 104.90234375 38.44921875 C104.92381271 26.63276938 104.95796167 14.81639283 105 3 C103.81729019 3.00444122 102.63458038 3.00888245 101.41603088 3.01345825 C90.24929211 3.05406895 79.08256841 3.08401542 67.91577244 3.10362434 C62.17534358 3.11404449 56.43497452 3.12817141 50.69458008 3.15087891 C45.15083672 3.17267032 39.60715074 3.18458193 34.06336784 3.18975449 C31.95236241 3.19343894 29.84135999 3.20063369 27.7303791 3.21146011 C24.76492747 3.22605869 21.79971052 3.22797444 18.83422852 3.22705078 C17.9689151 3.23424133 17.10360168 3.24143188 16.21206665 3.24884033 C10.57204695 3.22993326 5.45109047 2.44258649 0 1 C0 0.67 0 0.34 0 0 Z " fill="#6CBA81" transform="translate(341,562)"/>
<path d="M0 0 C4.29 0 8.58 0 13 0 C13 4.29 13 8.58 13 13 C6.565 13.495 6.565 13.495 0 14 C0 9.38 0 4.76 0 0 Z " fill="#FEFEFE" transform="translate(800,1000)"/>
<path d="M0 0 C4.29 0 8.58 0 13 0 C13 4.29 13 8.58 13 13 C8.71 13 4.42 13 0 13 C0 8.71 0 4.42 0 0 Z " fill="#FEFEFE" transform="translate(750,1000)"/>
<path d="M0 0 C4.29 0 8.58 0 13 0 C13 4.29 13 8.58 13 13 C8.71 13 4.42 13 0 13 C0 8.71 0 4.42 0 0 Z " fill="#FEFEFE" transform="translate(413,962)"/>
<path d="M0 0 C4.29 0 8.58 0 13 0 C13 4.29 13 8.58 13 13 C8.71 13 4.42 13 0 13 C0 8.71 0 4.42 0 0 Z " fill="#F5F5F6" transform="translate(775,937)"/>
<path d="M0 0 C4.29 0 8.58 0 13 0 C13 4.29 13 8.58 13 13 C8.71 13 4.42 13 0 13 C0 8.71 0 4.42 0 0 Z " fill="#F5F5F6" transform="translate(825,912)"/>
<path d="M0 0 C4.29 0 8.58 0 13 0 C13 4.29 13 8.58 13 13 C8.71 13 4.42 13 0 13 C0 8.71 0 4.42 0 0 Z " fill="#FEFEFE" transform="translate(413,912)"/>
<path d="M0 0 C4.29 0 8.58 0 13 0 C13 4.29 13 8.58 13 13 C8.71 13 4.42 13 0 13 C0 8.71 0 4.42 0 0 Z " fill="#FEFEFE" transform="translate(288,912)"/>
<path d="M0 0 C4.29 0 8.58 0 13 0 C13 4.29 13 8.58 13 13 C8.71 13 4.42 13 0 13 C0 8.71 0 4.42 0 0 Z " fill="#FEFEFE" transform="translate(875,749)"/>
<path d="M0 0 C3.35286458 0.03255208 6.70572917 0.06510417 10.05859375 0.09765625 C9.72859375 4.38765625 9.39859375 8.67765625 9.05859375 13.09765625 C4.76859375 13.09765625 0.47859375 13.09765625 -3.94140625 13.09765625 C-4.0390625 3.8203125 -4.0390625 3.8203125 -3.94140625 1.09765625 C-2.94140625 0.09765625 -2.94140625 0.09765625 0 0 Z " fill="#FEFEFE" transform="translate(853.94140625,748.90234375)"/>
<path d="M0 0 C4.29 0 8.58 0 13 0 C13 4.29 13 8.58 13 13 C8.71 13 4.42 13 0 13 C0 8.71 0 4.42 0 0 Z " fill="#F5F5F6" transform="translate(800,62)"/>
<path d="M0 0 C4.29 0 8.58 0 13 0 C13 4.29 13 8.58 13 13 C8.71 13 4.42 13 0 13 C0 8.71 0 4.42 0 0 Z " fill="#F5F5F6" transform="translate(775,37)"/>
<path d="M0 0 C4.29 0 8.58 0 13 0 C13 4.29 13 8.58 13 13 C8.71 13 4.42 13 0 13 C0 8.71 0 4.42 0 0 Z " fill="#F5F5F6" transform="translate(800,12)"/>
<path d="M0 0 C4.29 0 8.58 0 13 0 C13 4.29 13 8.58 13 13 C8.71 13 4.42 13 0 13 C0 8.71 0 4.42 0 0 Z " fill="#FEFEFE" transform="translate(288,12)"/>
<path d="M0 0 C4.29 0 8.58 0 13 0 C13.09765625 9.27734375 13.09765625 9.27734375 13 12 C12 13 12 13 9.27734375 13.09765625 C6.18489583 13.06510417 3.09244792 13.03255208 0 13 C0 8.71 0 4.42 0 0 Z " fill="#F5F5F6" transform="translate(750,912)"/>
<path d="M0 0 C4.29 0 8.58 0 13 0 C13 4.29 13 8.58 13 13 C8.71 13 4.42 13 0 13 C0 8.71 0 4.42 0 0 Z " fill="#F5F5F6" transform="translate(50,387)"/>
<path d="M0 0 C3.09244792 0.03255208 6.18489583 0.06510417 9.27734375 0.09765625 C9.27734375 4.38765625 9.27734375 8.67765625 9.27734375 13.09765625 C4.98734375 13.09765625 0.69734375 13.09765625 -3.72265625 13.09765625 C-3.8203125 3.8203125 -3.8203125 3.8203125 -3.72265625 1.09765625 C-2.72265625 0.09765625 -2.72265625 0.09765625 0 0 Z " fill="#F5F5F6" transform="translate(903.72265625,36.90234375)"/>
<path d="M0 0 C3.96 0 7.92 0 12 0 C12 4.29 12 8.58 12 13 C7.71 13 3.42 13 -1 13 C-1.125 3.375 -1.125 3.375 0 0 Z " fill="#F5F5F6" transform="translate(126,637)"/>
<path d="M0 0 C0.33 0.66 0.66 1.32 1 2 C4.96 2 8.92 2 13 2 C13 5.96 13 9.92 13 14 C8.71 14 4.42 14 0 14 C0 9.38 0 4.76 0 0 Z " fill="#FEFEFE" transform="translate(250,898)"/>
<path d="M0 0 C3.96 0 7.92 0 12 0 C12 4.29 12 8.58 12 13 C8.04 13 4.08 13 0 13 C-1.125 3.375 -1.125 3.375 0 0 Z " fill="#F5F5F6" transform="translate(701,12)"/>
<path d="M0 0 C3.96 0 7.92 0 12 0 C12 4.29 12 8.58 12 13 C7.71 13 3.42 13 -1 13 C-0.67 8.71 -0.34 4.42 0 0 Z " fill="#F5F5F6" transform="translate(351,12)"/>
<path d="M0 0 C3.96 0 7.92 0 12 0 C12 4.29 12 8.58 12 13 C8.04 13 4.08 13 0 13 C0 8.71 0 4.42 0 0 Z " fill="#F5F5F6" transform="translate(426,937)"/>
<path d="M0 0 C4.29 0 8.58 0 13 0 C13 3.96 13 7.92 13 12 C8.71 12 4.42 12 0 12 C0 8.04 0 4.08 0 0 Z " fill="#FEFEFE" transform="translate(475,925)"/>
<path d="M0 0 C4.29 0 8.58 0 13 0 C13 3.96 13 7.92 13 12 C8.71 12 4.42 12 0 12 C0 8.04 0 4.08 0 0 Z " fill="#F5F5F6" transform="translate(413,925)"/>
<path d="M0 0 C3.96 0 7.92 0 12 0 C12 4.29 12 8.58 12 13 C8.04 13 4.08 13 0 13 C0 8.71 0 4.42 0 0 Z " fill="#F5F5F6" transform="translate(451,912)"/>
<path d="M0 0 C3.96 0 7.92 0 12 0 C12 4.29 12 8.58 12 13 C8.04 13 4.08 13 0 13 C0 8.71 0 4.42 0 0 Z " fill="#F5F5F6" transform="translate(376,912)"/>
<path d="M0 0 C4.29 0 8.58 0 13 0 C13 3.96 13 7.92 13 12 C8.71 12 4.42 12 0 12 C0 8.04 0 4.08 0 0 Z " fill="#FEFEFE" transform="translate(775,900)"/>
<path d="M0 0 C4.29 0 8.58 0 13 0 C13 3.96 13 7.92 13 12 C8.71 12 4.42 12 0 12 C0 8.04 0 4.08 0 0 Z " fill="#FEFEFE" transform="translate(50,900)"/>
<path d="M0 0 C4.29 0 8.58 0 13 0 C13 3.96 13 7.92 13 12 C8.71 12 4.42 12 0 12 C0 8.04 0 4.08 0 0 Z " fill="#F5F5F6" transform="translate(263,850)"/>
<path d="M0 0 C3.96 0 7.92 0 12 0 C12 4.29 12 8.58 12 13 C8.04 13 4.08 13 0 13 C0 8.71 0 4.42 0 0 Z " fill="#F5F5F5" transform="translate(276,837)"/>
<path d="M0 0 C3.96 0 7.92 0 12 0 C12 4.29 12 8.58 12 13 C8.04 13 4.08 13 0 13 C0 8.71 0 4.42 0 0 Z " fill="#FEFEFE" transform="translate(213,837)"/>
<path d="M0 0 C3.96 0 7.92 0 12 0 C12 4.29 12 8.58 12 13 C8.04 13 4.08 13 0 13 C0 8.71 0 4.42 0 0 Z " fill="#F5F4F5" transform="translate(38,325)"/>
<path d="M0 0 C3.96 0 7.92 0 12 0 C12 4.29 12 8.58 12 13 C8.04 13 4.08 13 0 13 C0 8.71 0 4.42 0 0 Z " fill="#F5F5F6" transform="translate(101,187)"/>
<path d="M0 0 C3.96 0 7.92 0 12 0 C12 4.29 12 8.58 12 13 C8.04 13 4.08 13 0 13 C0 8.71 0 4.42 0 0 Z " fill="#FEFEFE" transform="translate(63,187)"/>
<path d="M0 0 C4.29 0 8.58 0 13 0 C13 3.96 13 7.92 13 12 C8.71 12 4.42 12 0 12 C0 8.04 0 4.08 0 0 Z " fill="#FEFEFE" transform="translate(950,0)"/>
<path d="M0 0 C4.29 0 8.58 0 13 0 C13 3.96 13 7.92 13 12 C8.71 12 4.42 12 0 12 C0 8.04 0 4.08 0 0 Z " fill="#FEFEFE" transform="translate(875,0)"/>
<path d="M0 0 C4.29 0 8.58 0 13 0 C13 3.96 13 7.92 13 12 C8.71 12 4.42 12 0 12 C0 8.04 0 4.08 0 0 Z " fill="#FEFEFE" transform="translate(850,0)"/>
<path d="M0 0 C4.29 0 8.58 0 13 0 C13 3.96 13 7.92 13 12 C8.71 12 4.42 12 0 12 C0 8.04 0 4.08 0 0 Z " fill="#FEFEFE" transform="translate(75,0)"/>
<path d="M0 0 C2.83203125 0.03255208 5.6640625 0.06510417 8.49609375 0.09765625 C8.49609375 4.38765625 8.49609375 8.67765625 8.49609375 13.09765625 C4.53609375 13.09765625 0.57609375 13.09765625 -3.50390625 13.09765625 C-3.6015625 3.8203125 -3.6015625 3.8203125 -3.50390625 1.09765625 C-2.50390625 0.09765625 -2.50390625 0.09765625 0 0 Z " fill="#F5F5F6" transform="translate(279.50390625,986.90234375)"/>
<path d="M0 0 C2.83203125 0.03255208 5.6640625 0.06510417 8.49609375 0.09765625 C8.49609375 4.38765625 8.49609375 8.67765625 8.49609375 13.09765625 C4.53609375 13.09765625 0.57609375 13.09765625 -3.50390625 13.09765625 C-3.6015625 3.8203125 -3.6015625 3.8203125 -3.50390625 1.09765625 C-2.50390625 0.09765625 -2.50390625 0.09765625 0 0 Z " fill="#F5F5F6" transform="translate(216.50390625,123.90234375)"/>
<path d="M0 0 C3.96 0 7.92 0 12 0 C12 4.29 12 8.58 12 13 C8.04 13 4.08 13 0 13 C0 8.71 0 4.42 0 0 Z " fill="#F5F5F5" transform="translate(138,1000)"/>
<path d="M0 0 C3.09244792 0.03255208 6.18489583 0.06510417 9.27734375 0.09765625 C9.27734375 4.05765625 9.27734375 8.01765625 9.27734375 12.09765625 C0 12.1953125 0 12.1953125 -2.72265625 12.09765625 C-3.72265625 11.09765625 -3.72265625 11.09765625 -3.85546875 8.84765625 C-3.85289062 7.94015625 -3.8503125 7.03265625 -3.84765625 6.09765625 C-3.85023438 5.19015625 -3.8528125 4.28265625 -3.85546875 3.34765625 C-3.65957253 0.02894377 -3.35952204 0.12049936 0 0 Z " fill="#F4F4F5" transform="translate(603.72265625,437.90234375)"/>
<path d="M0 0 C3.96 0 7.92 0 12 0 C12 3.96 12 7.92 12 12 C8.04 12 4.08 12 0 12 C-1.125 2.25 -1.125 2.25 0 0 Z " fill="#F4F4F5" transform="translate(863,400)"/>
<path d="M0 0 C0 4.29 0 8.58 0 13 C-3.96 13 -7.92 13 -12 13 C-12.428054 6.40796839 -12.428054 6.40796839 -12 3 C-8.49449848 -0.61172884 -4.8303651 -0.28413912 0 0 Z " fill="#F4F4F5" transform="translate(750,749)"/>
<path d="M0 0 C3.96 0 7.92 0 12 0 C12 3.96 12 7.92 12 12 C8.04 12 4.08 12 0 12 C0 8.04 0 4.08 0 0 Z " fill="#F5F4F5" transform="translate(963,975)"/>
<path d="M0 0 C3.96 0 7.92 0 12 0 C12 3.96 12 7.92 12 12 C8.04 12 4.08 12 0 12 C0 8.04 0 4.08 0 0 Z " fill="#F5F4F5" transform="translate(938,975)"/>
<path d="M0 0 C3.96 0 7.92 0 12 0 C12 3.96 12 7.92 12 12 C8.04 12 4.08 12 0 12 C0 8.04 0 4.08 0 0 Z " fill="#F5F4F5" transform="translate(888,975)"/>
<path d="M0 0 C3.96 0 7.92 0 12 0 C12 3.96 12 7.92 12 12 C8.04 12 4.08 12 0 12 C0 8.04 0 4.08 0 0 Z " fill="#F4F4F5" transform="translate(813,975)"/>
<path d="M0 0 C3.96 0 7.92 0 12 0 C12 3.96 12 7.92 12 12 C8.04 12 4.08 12 0 12 C0 8.04 0 4.08 0 0 Z " fill="#F5F5F5" transform="translate(788,975)"/>
<path d="M0 0 C3.96 0 7.92 0 12 0 C12 3.96 12 7.92 12 12 C8.04 12 4.08 12 0 12 C0 8.04 0 4.08 0 0 Z " fill="#F5F4F5" transform="translate(738,975)"/>
<path d="M0 0 C3.96 0 7.92 0 12 0 C12 3.96 12 7.92 12 12 C8.04 12 4.08 12 0 12 C0 8.04 0 4.08 0 0 Z " fill="#F5F4F5" transform="translate(688,975)"/>
<path d="M0 0 C3.96 0 7.92 0 12 0 C12 3.96 12 7.92 12 12 C8.04 12 4.08 12 0 12 C0 8.04 0 4.08 0 0 Z " fill="#F4F4F5" transform="translate(613,975)"/>
<path d="M0 0 C3.96 0 7.92 0 12 0 C12 3.96 12 7.92 12 12 C8.04 12 4.08 12 0 12 C0 8.04 0 4.08 0 0 Z " fill="#F5F4F5" transform="translate(538,975)"/>
<path d="M0 0 C3.96 0 7.92 0 12 0 C12 3.96 12 7.92 12 12 C8.04 12 4.08 12 0 12 C0 8.04 0 4.08 0 0 Z " fill="#F5F4F5" transform="translate(213,975)"/>
<path d="M0 0 C3.96 0 7.92 0 12 0 C12 3.96 12 7.92 12 12 C8.04 12 4.08 12 0 12 C0 8.04 0 4.08 0 0 Z " fill="#F5F4F5" transform="translate(138,975)"/>
<path d="M0 0 C3.96 0 7.92 0 12 0 C12 3.96 12 7.92 12 12 C8.04 12 4.08 12 0 12 C0 8.04 0 4.08 0 0 Z " fill="#F5F5F6" transform="translate(888,950)"/>
<path d="M0 0 C3.96 0 7.92 0 12 0 C12 3.96 12 7.92 12 12 C8.04 12 4.08 12 0 12 C0 8.04 0 4.08 0 0 Z " fill="#F5F5F5" transform="translate(813,950)"/>
<path d="M0 0 C3.96 0 7.92 0 12 0 C12 3.96 12 7.92 12 12 C8.04 12 4.08 12 0 12 C0 8.04 0 4.08 0 0 Z " fill="#F5F4F5" transform="translate(788,950)"/>
<path d="M0 0 C3.96 0 7.92 0 12 0 C12 3.96 12 7.92 12 12 C8.04 12 4.08 12 0 12 C0 8.04 0 4.08 0 0 Z " fill="#F5F5F5" transform="translate(763,950)"/>
<path d="M0 0 C3.96 0 7.92 0 12 0 C12 3.96 12 7.92 12 12 C8.04 12 4.08 12 0 12 C0 8.04 0 4.08 0 0 Z " fill="#F5F5F5" transform="translate(713,950)"/>
<path d="M0 0 C3.96 0 7.92 0 12 0 C12 3.96 12 7.92 12 12 C8.04 12 4.08 12 0 12 C0 8.04 0 4.08 0 0 Z " fill="#F5F5F5" transform="translate(488,950)"/>
<path d="M0 0 C3.96 0 7.92 0 12 0 C12 3.96 12 7.92 12 12 C8.04 12 4.08 12 0 12 C0 8.04 0 4.08 0 0 Z " fill="#F5F5F5" transform="translate(338,950)"/>
<path d="M0 0 C3.96 0 7.92 0 12 0 C12 3.96 12 7.92 12 12 C8.04 12 4.08 12 0 12 C0 8.04 0 4.08 0 0 Z " fill="#F5F4F5" transform="translate(213,950)"/>
<path d="M0 0 C3.96 0 7.92 0 12 0 C12 3.96 12 7.92 12 12 C8.04 12 4.08 12 0 12 C0 8.04 0 4.08 0 0 Z " fill="#F5F4F5" transform="translate(138,950)"/>
<path d="M0 0 C3.96 0 7.92 0 12 0 C12 3.96 12 7.92 12 12 C8.04 12 4.08 12 0 12 C0 8.04 0 4.08 0 0 Z " fill="#F5F5F5" transform="translate(38,950)"/>
<path d="M0 0 C3.96 0 7.92 0 12 0 C12 3.96 12 7.92 12 12 C8.04 12 4.08 12 0 12 C0 8.04 0 4.08 0 0 Z " fill="#F5F4F5" transform="translate(913,925)"/>
<path d="M0 0 C3.96 0 7.92 0 12 0 C12 3.96 12 7.92 12 12 C8.04 12 4.08 12 0 12 C0 8.04 0 4.08 0 0 Z " fill="#F5F5F5" transform="translate(888,925)"/>
<path d="M0 0 C3.96 0 7.92 0 12 0 C12 3.96 12 7.92 12 12 C8.04 12 4.08 12 0 12 C0 8.04 0 4.08 0 0 Z " fill="#F5F4F5" transform="translate(813,925)"/>
<path d="M0 0 C3.96 0 7.92 0 12 0 C12 3.96 12 7.92 12 12 C8.04 12 4.08 12 0 12 C0 8.04 0 4.08 0 0 Z " fill="#F5F5F5" transform="translate(763,925)"/>
<path d="M0 0 C3.96 0 7.92 0 12 0 C12 3.96 12 7.92 12 12 C8.04 12 4.08 12 0 12 C0 8.04 0 4.08 0 0 Z " fill="#F5F5F5" transform="translate(738,925)"/>
<path d="M0 0 C3.96 0 7.92 0 12 0 C12 3.96 12 7.92 12 12 C8.04 12 4.08 12 0 12 C0 8.04 0 4.08 0 0 Z " fill="#F5F5F5" transform="translate(713,925)"/>
<path d="M0 0 C3.96 0 7.92 0 12 0 C12 3.96 12 7.92 12 12 C8.04 12 4.08 12 0 12 C0 8.04 0 4.08 0 0 Z " fill="#F5F4F5" transform="translate(688,925)"/>
<path d="M0 0 C2.83203125 0.03255208 5.6640625 0.06510417 8.49609375 0.09765625 C8.49609375 4.05765625 8.49609375 8.01765625 8.49609375 12.09765625 C5.87294343 13.40923141 4.26575939 12.99415613 1.37109375 12.66015625 C0.00597656 12.50740234 0.00597656 12.50740234 -1.38671875 12.3515625 C-2.08539063 12.26777344 -2.7840625 12.18398438 -3.50390625 12.09765625 C-3.53077904 10.28523573 -3.5502434 8.47270392 -3.56640625 6.66015625 C-3.57800781 5.65082031 -3.58960938 4.64148438 -3.6015625 3.6015625 C-3.46988459 0.22534083 -3.37622167 0.13167791 0 0 Z " fill="#FEFEFE" transform="translate(279.50390625,924.90234375)"/>
<path d="M0 0 C3.96 0 7.92 0 12 0 C12 3.96 12 7.92 12 12 C8.04 12 4.08 12 0 12 C0 8.04 0 4.08 0 0 Z " fill="#F5F4F5" transform="translate(213,925)"/>
<path d="M0 0 C3.96 0 7.92 0 12 0 C12 3.96 12 7.92 12 12 C8.04 12 4.08 12 0 12 C0 8.04 0 4.08 0 0 Z " fill="#F5F4F5" transform="translate(63,925)"/>
<path d="M0 0 C3.96 0 7.92 0 12 0 C12 3.96 12 7.92 12 12 C8.04 12 4.08 12 0 12 C0 8.04 0 4.08 0 0 Z " fill="#F5F4F5" transform="translate(38,925)"/>
<path d="M0 0 C3.96 0 7.92 0 12 0 C12 3.96 12 7.92 12 12 C8.04 12 4.08 12 0 12 C0 8.04 0 4.08 0 0 Z " fill="#F5F4F5" transform="translate(13,925)"/>
<path d="M0 0 C3.96 0 7.92 0 12 0 C12 3.96 12 7.92 12 12 C8.04 12 4.08 12 0 12 C0 8.04 0 4.08 0 0 Z " fill="#F5F4F5" transform="translate(613,900)"/>
<path d="M0 0 C3.96 0 7.92 0 12 0 C12 3.96 12 7.92 12 12 C8.04 12 4.08 12 0 12 C0 8.04 0 4.08 0 0 Z " fill="#F5F4F5" transform="translate(938,900)"/>
<path d="M0 0 C3.96 0 7.92 0 12 0 C12 3.96 12 7.92 12 12 C8.04 12 4.08 12 0 12 C0 8.04 0 4.08 0 0 Z " fill="#F5F5F6" transform="translate(888,900)"/>
<path d="M0 0 C3.96 0 7.92 0 12 0 C12 3.96 12 7.92 12 12 C8.04 12 4.08 12 0 12 C0 8.04 0 4.08 0 0 Z " fill="#F5F5F5" transform="translate(838,900)"/>
<path d="M0 0 C3.96 0 7.92 0 12 0 C12 3.96 12 7.92 12 12 C8.04 12 4.08 12 0 12 C0 8.04 0 4.08 0 0 Z " fill="#F5F5F5" transform="translate(738,900)"/>
<path d="M0 0 C3.96 0 7.92 0 12 0 C12 3.96 12 7.92 12 12 C8.04 12 4.08 12 0 12 C0 8.04 0 4.08 0 0 Z " fill="#F5F4F5" transform="translate(713,900)"/>
<path d="M0 0 C3.96 0 7.92 0 12 0 C12 3.96 12 7.92 12 12 C8.04 12 4.08 12 0 12 C0 8.04 0 4.08 0 0 Z " fill="#F5F5F5" transform="translate(688,900)"/>
<path d="M0 0 C3.96 0 7.92 0 12 0 C12 3.96 12 7.92 12 12 C8.04 12 4.08 12 0 12 C0 8.04 0 4.08 0 0 Z " fill="#FEFEFE" transform="translate(276,900)"/>
<path d="M0 0 C3.96 0 7.92 0 12 0 C12 3.96 12 7.92 12 12 C8.04 12 4.08 12 0 12 C0 8.04 0 4.08 0 0 Z " fill="#F5F5F5" transform="translate(213,900)"/>
<path d="M0 0 C3.96 0 7.92 0 12 0 C12 3.96 12 7.92 12 12 C8.04 12 4.08 12 0 12 C0 8.04 0 4.08 0 0 Z " fill="#F5F5F5" transform="translate(88,900)"/>
<path d="M0 0 C3.96 0 7.92 0 12 0 C12 3.96 12 7.92 12 12 C8.04 12 4.08 12 0 12 C0 8.04 0 4.08 0 0 Z " fill="#F5F4F5" transform="translate(938,775)"/>
<path d="M0 0 C3.96 0 7.92 0 12 0 C12 3.96 12 7.92 12 12 C8.04 12 4.08 12 0 12 C0 8.04 0 4.08 0 0 Z " fill="#F5F4F5" transform="translate(913,775)"/>
<path d="M0 0 C3.96 0 7.92 0 12 0 C12 3.96 12 7.92 12 12 C8.04 12 4.08 12 0 12 C0 8.04 0 4.08 0 0 Z " fill="#FEFEFE" transform="translate(813,737)"/>
<path d="M0 0 C3.96 0 7.92 0 12 0 C12 3.96 12 7.92 12 12 C8.04 12 4.08 12 0 12 C0 8.04 0 4.08 0 0 Z " fill="#F5F4F5" transform="translate(213,725)"/>
<path d="M0 0 C3.96 0 7.92 0 12 0 C12 3.96 12 7.92 12 12 C8.04 12 4.08 12 0 12 C0 8.04 0 4.08 0 0 Z " fill="#F5F4F5" transform="translate(963,700)"/>
<path d="M0 0 C3.96 0 7.92 0 12 0 C12 3.96 12 7.92 12 12 C8.04 12 4.08 12 0 12 C0 8.04 0 4.08 0 0 Z " fill="#F5F4F5" transform="translate(913,700)"/>
<path d="M0 0 C3.96 0 7.92 0 12 0 C12 3.96 12 7.92 12 12 C8.04 12 4.08 12 0 12 C0 8.04 0 4.08 0 0 Z " fill="#F5F5F5" transform="translate(888,700)"/>
<path d="M0 0 C3.96 0 7.92 0 12 0 C12 3.96 12 7.92 12 12 C8.04 12 4.08 12 0 12 C0 8.04 0 4.08 0 0 Z " fill="#F5F4F5" transform="translate(863,700)"/>
<path d="M0 0 C3.96 0 7.92 0 12 0 C12 3.96 12 7.92 12 12 C8.04 12 4.08 12 0 12 C0 8.04 0 4.08 0 0 Z " fill="#F5F4F5" transform="translate(888,675)"/>
<path d="M0 0 C3.96 0 7.92 0 12 0 C12 3.96 12 7.92 12 12 C8.04 12 4.08 12 0 12 C0 8.04 0 4.08 0 0 Z " fill="#F5F4F5" transform="translate(838,675)"/>
<path d="M0 0 C3.96 0 7.92 0 12 0 C12 3.96 12 7.92 12 12 C8.04 12 4.08 12 0 12 C0 8.04 0 4.08 0 0 Z " fill="#F5F4F5" transform="translate(163,675)"/>
<path d="M0 0 C3.96 0 7.92 0 12 0 C12 3.96 12 7.92 12 12 C8.04 12 4.08 12 0 12 C0 8.04 0 4.08 0 0 Z " fill="#F5F4F5" transform="translate(138,675)"/>
<path d="M0 0 C3.96 0 7.92 0 12 0 C12 3.96 12 7.92 12 12 C8.04 12 4.08 12 0 12 C0 8.04 0 4.08 0 0 Z " fill="#F5F4F5" transform="translate(88,675)"/>
<path d="M0 0 C3.96 0 7.92 0 12 0 C12 3.96 12 7.92 12 12 C8.04 12 4.08 12 0 12 C0 8.04 0 4.08 0 0 Z " fill="#F5F4F5" transform="translate(63,675)"/>
<path d="M0 0 C3.96 0 7.92 0 12 0 C12 3.96 12 7.92 12 12 C8.04 12 4.08 12 0 12 C0 8.04 0 4.08 0 0 Z " fill="#F5F4F5" transform="translate(13,675)"/>
<path d="M0 0 C3.96 0 7.92 0 12 0 C12 3.96 12 7.92 12 12 C8.04 12 4.08 12 0 12 C0 8.04 0 4.08 0 0 Z " fill="#F5F5F5" transform="translate(938,650)"/>
<path d="M0 0 C3.96 0 7.92 0 12 0 C12 3.96 12 7.92 12 12 C8.04 12 4.08 12 0 12 C0 8.04 0 4.08 0 0 Z " fill="#F5F5F5" transform="translate(913,650)"/>
<path d="M0 0 C3.96 0 7.92 0 12 0 C12 3.96 12 7.92 12 12 C8.04 12 4.08 12 0 12 C0 8.04 0 4.08 0 0 Z " fill="#F5F4F5" transform="translate(838,650)"/>
<path d="M0 0 C3.96 0 7.92 0 12 0 C12 3.96 12 7.92 12 12 C8.04 12 4.08 12 0 12 C0 8.04 0 4.08 0 0 Z " fill="#F4F4F5" transform="translate(813,650)"/>
<path d="M0 0 C3.96 0 7.92 0 12 0 C12 3.96 12 7.92 12 12 C8.04 12 4.08 12 0 12 C0 8.04 0 4.08 0 0 Z " fill="#F5F5F5" transform="translate(188,650)"/>
<path d="M0 0 C3.96 0 7.92 0 12 0 C12 3.96 12 7.92 12 12 C8.04 12 4.08 12 0 12 C0 8.04 0 4.08 0 0 Z " fill="#F5F4F5" transform="translate(163,650)"/>
<path d="M0 0 C3.96 0 7.92 0 12 0 C12 3.96 12 7.92 12 12 C8.04 12 4.08 12 0 12 C0 8.04 0 4.08 0 0 Z " fill="#F5F4F5" transform="translate(138,650)"/>
<path d="M0 0 C3.96 0 7.92 0 12 0 C12 3.96 12 7.92 12 12 C8.04 12 4.08 12 0 12 C0 8.04 0 4.08 0 0 Z " fill="#F5F5F5" transform="translate(113,650)"/>
<path d="M0 0 C3.96 0 7.92 0 12 0 C12 3.96 12 7.92 12 12 C8.04 12 4.08 12 0 12 C0 8.04 0 4.08 0 0 Z " fill="#F5F4F5" transform="translate(88,650)"/>
<path d="M0 0 C3.96 0 7.92 0 12 0 C12 3.96 12 7.92 12 12 C8.04 12 4.08 12 0 12 C0 8.04 0 4.08 0 0 Z " fill="#F5F4F5" transform="translate(63,650)"/>
<path d="M0 0 C3.96 0 7.92 0 12 0 C12 3.96 12 7.92 12 12 C8.04 12 4.08 12 0 12 C0 8.04 0 4.08 0 0 Z " fill="#F5F4F5" transform="translate(38,650)"/>
<path d="M0 0 C3.96 0 7.92 0 12 0 C12 3.96 12 7.92 12 12 C8.04 12 4.08 12 0 12 C0 8.04 0 4.08 0 0 Z " fill="#F5F5F5" transform="translate(988,625)"/>
<path d="M0 0 C3.96 0 7.92 0 12 0 C12 3.96 12 7.92 12 12 C8.04 12 4.08 12 0 12 C0 8.04 0 4.08 0 0 Z " fill="#F5F5F5" transform="translate(888,625)"/>
<path d="M0 0 C3.96 0 7.92 0 12 0 C12 3.96 12 7.92 12 12 C8.04 12 4.08 12 0 12 C0 8.04 0 4.08 0 0 Z " fill="#F5F4F5" transform="translate(138,625)"/>
<path d="M0 0 C3.96 0 7.92 0 12 0 C12 3.96 12 7.92 12 12 C8.04 12 4.08 12 0 12 C0 8.04 0 4.08 0 0 Z " fill="#F5F4F5" transform="translate(63,625)"/>
<path d="M0 0 C3.96 0 7.92 0 12 0 C12 3.96 12 7.92 12 12 C8.04 12 4.08 12 0 12 C0 8.04 0 4.08 0 0 Z " fill="#F5F4F5" transform="translate(988,575)"/>
<path d="M0 0 C3.96 0 7.92 0 12 0 C12 3.96 12 7.92 12 12 C8.04 12 4.08 12 0 12 C0 8.04 0 4.08 0 0 Z " fill="#F5F4F5" transform="translate(963,575)"/>
<path d="M0 0 C3.96 0 7.92 0 12 0 C12 3.96 12 7.92 12 12 C8.04 12 4.08 12 0 12 C0 8.04 0 4.08 0 0 Z " fill="#F5F4F5" transform="translate(938,575)"/>
<path d="M0 0 C3.96 0 7.92 0 12 0 C12 3.96 12 7.92 12 12 C8.04 12 4.08 12 0 12 C0 8.04 0 4.08 0 0 Z " fill="#F5F4F5" transform="translate(913,575)"/>
<path d="M0 0 C3.96 0 7.92 0 12 0 C12 3.96 12 7.92 12 12 C8.04 12 4.08 12 0 12 C0 8.04 0 4.08 0 0 Z " fill="#F4F4F5" transform="translate(838,575)"/>
<path d="M0 0 C3.96 0 7.92 0 12 0 C12 3.96 12 7.92 12 12 C8.04 12 4.08 12 0 12 C0 8.04 0 4.08 0 0 Z " fill="#F5F4F5" transform="translate(538,575)"/>
<path d="M0 0 C3.96 0 7.92 0 12 0 C12 3.96 12 7.92 12 12 C8.04 12 4.08 12 0 12 C0 8.04 0 4.08 0 0 Z " fill="#F5F4F5" transform="translate(138,575)"/>
<path d="M0 0 C3.96 0 7.92 0 12 0 C12 3.96 12 7.92 12 12 C8.04 12 4.08 12 0 12 C0 8.04 0 4.08 0 0 Z " fill="#F5F4F5" transform="translate(113,575)"/>
<path d="M0 0 C3.96 0 7.92 0 12 0 C12 3.96 12 7.92 12 12 C8.04 12 4.08 12 0 12 C0 8.04 0 4.08 0 0 Z " fill="#F5F4F5" transform="translate(1000,537)"/>
<path d="M0 0 C3.96 0 7.92 0 12 0 C12 3.96 12 7.92 12 12 C8.04 12 4.08 12 0 12 C0 8.04 0 4.08 0 0 Z " fill="#F5F4F5" transform="translate(975,462)"/>
<path d="M0 0 C3.96 0 7.92 0 12 0 C12 3.96 12 7.92 12 12 C8.04 12 4.08 12 0 12 C0 8.04 0 4.08 0 0 Z " fill="#F5F4F5" transform="translate(401,462)"/>
<path d="M0 0 C3.96 0 7.92 0 12 0 C12 3.96 12 7.92 12 12 C8.04 12 4.08 12 0 12 C0 8.04 0 4.08 0 0 Z " fill="#F5F4F5" transform="translate(588,450)"/>
<path d="M0 0 C3.96 0 7.92 0 12 0 C12 3.96 12 7.92 12 12 C8.04 12 4.08 12 0 12 C0 8.04 0 4.08 0 0 Z " fill="#F5F4F5" transform="translate(538,450)"/>
<path d="M0 0 C3.96 0 7.92 0 12 0 C12 3.96 12 7.92 12 12 C8.04 12 4.08 12 0 12 C0 8.04 0 4.08 0 0 Z " fill="#F5F4F5" transform="translate(463,450)"/>
<path d="M0 0 C3.96 0 7.92 0 12 0 C12 3.96 12 7.92 12 12 C8.04 12 4.08 12 0 12 C0 8.04 0 4.08 0 0 Z " fill="#F5F4F5" transform="translate(438,450)"/>
<path d="M0 0 C3.96 0 7.92 0 12 0 C12 3.96 12 7.92 12 12 C8.04 12 4.08 12 0 12 C0 8.04 0 4.08 0 0 Z " fill="#F5F4F5" transform="translate(338,450)"/>
<path d="M0 0 C3.96 0 7.92 0 12 0 C12 3.96 12 7.92 12 12 C8.04 12 4.08 12 0 12 C0 8.04 0 4.08 0 0 Z " fill="#F4F4F5" transform="translate(651,438)"/>
<path d="M0 0 C3.96 0 7.92 0 12 0 C12 3.96 12 7.92 12 12 C8.04 12 4.08 12 0 12 C0 8.04 0 4.08 0 0 Z " fill="#F5F5F5" transform="translate(938,425)"/>
<path d="M0 0 C3.96 0 7.92 0 12 0 C12 3.96 12 7.92 12 12 C8.04 12 4.08 12 0 12 C0 8.04 0 4.08 0 0 Z " fill="#F5F5F5" transform="translate(888,425)"/>
<path d="M0 0 C3.96 0 7.92 0 12 0 C12 3.96 12 7.92 12 12 C8.04 12 4.08 12 0 12 C0 8.04 0 4.08 0 0 Z " fill="#F5F5F5" transform="translate(938,400)"/>
<path d="M0 0 C3.96 0 7.92 0 12 0 C12 3.96 12 7.92 12 12 C8.04 12 4.08 12 0 12 C0 8.04 0 4.08 0 0 Z " fill="#F5F4F5" transform="translate(463,400)"/>
<path d="M0 0 C3.96 0 7.92 0 12 0 C12 3.96 12 7.92 12 12 C8.04 12 4.08 12 0 12 C0 8.04 0 4.08 0 0 Z " fill="#F5F4F5" transform="translate(63,400)"/>
<path d="M0 0 C3.96 0 7.92 0 12 0 C12 3.96 12 7.92 12 12 C8.04 12 4.08 12 0 12 C0 8.04 0 4.08 0 0 Z " fill="#F5F4F5" transform="translate(38,400)"/>
<path d="M0 0 C3.96 0 7.92 0 12 0 C12 3.96 12 7.92 12 12 C8.04 12 4.08 12 0 12 C0 8.04 0 4.08 0 0 Z " fill="#F5F4F5" transform="translate(13,400)"/>
<path d="M0 0 C3.96 0 7.92 0 12 0 C12 3.96 12 7.92 12 12 C8.04 12 4.08 12 0 12 C0 8.04 0 4.08 0 0 Z " fill="#F5F5F5" transform="translate(963,375)"/>
<path d="M0 0 C3.96 0 7.92 0 12 0 C12 3.96 12 7.92 12 12 C8.04 12 4.08 12 0 12 C0 8.04 0 4.08 0 0 Z " fill="#F5F5F5" transform="translate(938,375)"/>
<path d="M0 0 C3.96 0 7.92 0 12 0 C12 3.96 12 7.92 12 12 C8.04 12 4.08 12 0 12 C0 8.04 0 4.08 0 0 Z " fill="#F5F4F5" transform="translate(913,375)"/>
<path d="M0 0 C3.96 0 7.92 0 12 0 C12 3.96 12 7.92 12 12 C8.04 12 4.08 12 0 12 C0 8.04 0 4.08 0 0 Z " fill="#F5F4F5" transform="translate(463,375)"/>
<path d="M0 0 C3.96 0 7.92 0 12 0 C12 3.96 12 7.92 12 12 C8.04 12 4.08 12 0 12 C0 8.04 0 4.08 0 0 Z " fill="#F5F4F5" transform="translate(113,375)"/>
<path d="M0 0 C3.96 0 7.92 0 12 0 C12 3.96 12 7.92 12 12 C8.04 12 4.08 12 0 12 C0 8.04 0 4.08 0 0 Z " fill="#F5F4F5" transform="translate(88,375)"/>
<path d="M0 0 C3.96 0 7.92 0 12 0 C12 3.96 12 7.92 12 12 C8.04 12 4.08 12 0 12 C0 8.04 0 4.08 0 0 Z " fill="#F5F4F5" transform="translate(63,375)"/>
<path d="M0 0 C3.96 0 7.92 0 12 0 C12 3.96 12 7.92 12 12 C8.04 12 4.08 12 0 12 C0 8.04 0 4.08 0 0 Z " fill="#F5F4F5" transform="translate(38,375)"/>
<path d="M0 0 C3.96 0 7.92 0 12 0 C12 3.96 12 7.92 12 12 C8.04 12 4.08 12 0 12 C0 8.04 0 4.08 0 0 Z " fill="#F5F4F5" transform="translate(13,375)"/>
<path d="M0 0 C3.96 0 7.92 0 12 0 C12 3.96 12 7.92 12 12 C8.04 12 4.08 12 0 12 C0 8.04 0 4.08 0 0 Z " fill="#F5F5F5" transform="translate(963,350)"/>
<path d="M0 0 C3.96 0 7.92 0 12 0 C12 3.96 12 7.92 12 12 C8.04 12 4.08 12 0 12 C0 8.04 0 4.08 0 0 Z " fill="#F5F5F5" transform="translate(88,350)"/>
<path d="M0 0 C3.96 0 7.92 0 12 0 C12 3.96 12 7.92 12 12 C8.04 12 4.08 12 0 12 C0 8.04 0 4.08 0 0 Z " fill="#F5F4F5" transform="translate(63,350)"/>
<path d="M0 0 C3.96 0 7.92 0 12 0 C12 3.96 12 7.92 12 12 C8.04 12 4.08 12 0 12 C0 8.04 0 4.08 0 0 Z " fill="#F5F5F5" transform="translate(38,350)"/>
<path d="M0 0 C3.96 0 7.92 0 12 0 C12 3.96 12 7.92 12 12 C8.04 12 4.08 12 0 12 C0 8.04 0 4.08 0 0 Z " fill="#F5F5F6" transform="translate(13,350)"/>
<path d="M0 0 C3.96 0 7.92 0 12 0 C12 3.96 12 7.92 12 12 C8.04 12 4.08 12 0 12 C0 8.04 0 4.08 0 0 Z " fill="#FEFEFE" transform="translate(913,338)"/>
<path d="M0 0 C3.96 0 7.92 0 12 0 C12 3.96 12 7.92 12 12 C8.04 12 4.08 12 0 12 C0 8.04 0 4.08 0 0 Z " fill="#F5F4F5" transform="translate(101,338)"/>
<path d="M0 0 C3.96 0 7.92 0 12 0 C12 3.96 12 7.92 12 12 C8.04 12 4.08 12 0 12 C0 8.04 0 4.08 0 0 Z " fill="#F5F5F6" transform="translate(913,300)"/>
<path d="M0 0 C3.96 0 7.92 0 12 0 C12 3.96 12 7.92 12 12 C8.04 12 4.08 12 0 12 C0 8.04 0 4.08 0 0 Z " fill="#F5F5F5" transform="translate(88,300)"/>
<path d="M0 0 C3.96 0 7.92 0 12 0 C12 3.96 12 7.92 12 12 C8.04 12 4.08 12 0 12 C0 8.04 0 4.08 0 0 Z " fill="#F5F5F5" transform="translate(63,300)"/>
<path d="M0 0 C3.96 0 7.92 0 12 0 C12 3.96 12 7.92 12 12 C8.04 12 4.08 12 0 12 C0 8.04 0 4.08 0 0 Z " fill="#F5F4F5" transform="translate(113,225)"/>
<path d="M0 0 C3.96 0 7.92 0 12 0 C12 3.96 12 7.92 12 12 C8.04 12 4.08 12 0 12 C0 8.04 0 4.08 0 0 Z " fill="#F5F5F5" transform="translate(913,200)"/>
<path d="M0 0 C3.96 0 7.92 0 12 0 C12 3.96 12 7.92 12 12 C8.04 12 4.08 12 0 12 C0 8.04 0 4.08 0 0 Z " fill="#F5F4F5" transform="translate(63,200)"/>
<path d="M0 0 C3.96 0 7.92 0 12 0 C12 3.96 12 7.92 12 12 C8.04 12 4.08 12 0 12 C0 8.04 0 4.08 0 0 Z " fill="#F5F5F5" transform="translate(913,175)"/>
<path d="M0 0 C3.96 0 7.92 0 12 0 C12 3.96 12 7.92 12 12 C8.04 12 4.08 12 0 12 C0 8.04 0 4.08 0 0 Z " fill="#F5F5F6" transform="translate(88,175)"/>
<path d="M0 0 C3.96 0 7.92 0 12 0 C12 3.96 12 7.92 12 12 C8.04 12 4.08 12 0 12 C0 8.04 0 4.08 0 0 Z " fill="#F5F4F5" transform="translate(588,75)"/>
<path d="M0 0 C3.96 0 7.92 0 12 0 C12 3.96 12 7.92 12 12 C8.04 12 4.08 12 0 12 C0 8.04 0 4.08 0 0 Z " fill="#F5F4F5" transform="translate(463,75)"/>
<path d="M0 0 C3.96 0 7.92 0 12 0 C12 3.96 12 7.92 12 12 C8.04 12 4.08 12 0 12 C0 8.04 0 4.08 0 0 Z " fill="#F5F4F5" transform="translate(213,75)"/>
<path d="M0 0 C3.96 0 7.92 0 12 0 C12 3.96 12 7.92 12 12 C8.04 12 4.08 12 0 12 C0 8.04 0 4.08 0 0 Z " fill="#F5F4F5" transform="translate(113,75)"/>
<path d="M0 0 C3.96 0 7.92 0 12 0 C12 3.96 12 7.92 12 12 C8.04 12 4.08 12 0 12 C0 8.04 0 4.08 0 0 Z " fill="#F5F4F5" transform="translate(38,75)"/>
<path d="M0 0 C3.96 0 7.92 0 12 0 C12 3.96 12 7.92 12 12 C8.04 12 4.08 12 0 12 C0 8.04 0 4.08 0 0 Z " fill="#F5F5F6" transform="translate(963,50)"/>
<path d="M0 0 C3.96 0 7.92 0 12 0 C12 3.96 12 7.92 12 12 C8.04 12 4.08 12 0 12 C0 8.04 0 4.08 0 0 Z " fill="#F5F5F6" transform="translate(888,50)"/>
<path d="M0 0 C3.96 0 7.92 0 12 0 C12 3.96 12 7.92 12 12 C8.04 12 4.08 12 0 12 C0 8.04 0 4.08 0 0 Z " fill="#F5F5F5" transform="translate(813,50)"/>
<path d="M0 0 C3.96 0 7.92 0 12 0 C12 3.96 12 7.92 12 12 C8.04 12 4.08 12 0 12 C0 8.04 0 4.08 0 0 Z " fill="#F5F5F6" transform="translate(788,50)"/>
<path d="M0 0 C3.96 0 7.92 0 12 0 C12 3.96 12 7.92 12 12 C8.04 12 4.08 12 0 12 C0 8.04 0 4.08 0 0 Z " fill="#F5F5F5" transform="translate(763,50)"/>
<path d="M0 0 C3.96 0 7.92 0 12 0 C12 3.96 12 7.92 12 12 C8.04 12 4.08 12 0 12 C0 8.04 0 4.08 0 0 Z " fill="#FEFEFE" transform="translate(301,50)"/>
<path d="M0 0 C3.96 0 7.92 0 12 0 C12 3.96 12 7.92 12 12 C8.04 12 4.08 12 0 12 C0 8.04 0 4.08 0 0 Z " fill="#FEFEFE" transform="translate(276,50)"/>
<path d="M0 0 C3.96 0 7.92 0 12 0 C12 3.96 12 7.92 12 12 C8.04 12 4.08 12 0 12 C0 8.04 0 4.08 0 0 Z " fill="#F5F4F5" transform="translate(213,50)"/>
<path d="M0 0 C3.96 0 7.92 0 12 0 C12 3.96 12 7.92 12 12 C8.04 12 4.08 12 0 12 C0 8.04 0 4.08 0 0 Z " fill="#F5F5F5" transform="translate(213,25)"/>
<path d="M0 0 C3.96 0 7.92 0 12 0 C12 3.96 12 7.92 12 12 C8.04 12 4.08 12 0 12 C0 8.04 0 4.08 0 0 Z " fill="#F5F5F5" transform="translate(913,25)"/>
<path d="M0 0 C3.96 0 7.92 0 12 0 C12 3.96 12 7.92 12 12 C8.04 12 4.08 12 0 12 C0 8.04 0 4.08 0 0 Z " fill="#F5F5F5" transform="translate(813,25)"/>
<path d="M0 0 C3.96 0 7.92 0 12 0 C12 3.96 12 7.92 12 12 C8.04 12 4.08 12 0 12 C0 8.04 0 4.08 0 0 Z " fill="#F5F5F5" transform="translate(788,25)"/>
<path d="M0 0 C3.96 0 7.92 0 12 0 C12 3.96 12 7.92 12 12 C8.04 12 4.08 12 0 12 C0 8.04 0 4.08 0 0 Z " fill="#F5F5F5" transform="translate(738,25)"/>
<path d="M0 0 C3.96 0 7.92 0 12 0 C12 3.96 12 7.92 12 12 C8.04 12 4.08 12 0 12 C0 8.04 0 4.08 0 0 Z " fill="#F5F4F5" transform="translate(463,25)"/>
<path d="M0 0 C3.96 0 7.92 0 12 0 C12 3.96 12 7.92 12 12 C8.04 12 4.08 12 0 12 C0 8.04 0 4.08 0 0 Z " fill="#FEFEFE" transform="translate(276,25)"/>
<path d="M0 0 C3.96 0 7.92 0 12 0 C12 3.96 12 7.92 12 12 C8.04 12 4.08 12 0 12 C0 8.04 0 4.08 0 0 Z " fill="#F5F5F5" transform="translate(188,25)"/>
<path d="M0 0 C3.96 0 7.92 0 12 0 C12 3.96 12 7.92 12 12 C8.04 12 4.08 12 0 12 C0 8.04 0 4.08 0 0 Z " fill="#F5F5F6" transform="translate(913,0)"/>
<path d="M0 0 C3.96 0 7.92 0 12 0 C12 3.96 12 7.92 12 12 C8.04 12 4.08 12 0 12 C0 8.04 0 4.08 0 0 Z " fill="#F5F5F6" transform="translate(813,0)"/>
<path d="M0 0 C3.96 0 7.92 0 12 0 C12 3.96 12 7.92 12 12 C8.04 12 4.08 12 0 12 C0 8.04 0 4.08 0 0 Z " fill="#F5F5F6" transform="translate(788,0)"/>
<path d="M0 0 C3.96 0 7.92 0 12 0 C12 3.96 12 7.92 12 12 C8.04 12 4.08 12 0 12 C0 8.04 0 4.08 0 0 Z " fill="#F5F5F6" transform="translate(763,0)"/>
<path d="M0 0 C3.96 0 7.92 0 12 0 C12 3.96 12 7.92 12 12 C8.04 12 4.08 12 0 12 C0 8.04 0 4.08 0 0 Z " fill="#F5F5F6" transform="translate(738,0)"/>
<path d="M0 0 C3.96 0 7.92 0 12 0 C12 3.96 12 7.92 12 12 C8.04 12 4.08 12 0 12 C0 8.04 0 4.08 0 0 Z " fill="#F5F5F6" transform="translate(713,0)"/>
<path d="M0 0 C3.96 0 7.92 0 12 0 C12 3.96 12 7.92 12 12 C8.04 12 4.08 12 0 12 C0 8.04 0 4.08 0 0 Z " fill="#F5F5F6" transform="translate(538,0)"/>
<path d="M0 0 C3.96 0 7.92 0 12 0 C12 3.96 12 7.92 12 12 C8.04 12 4.08 12 0 12 C0 8.04 0 4.08 0 0 Z " fill="#F5F5F6" transform="translate(463,0)"/>
<path d="M0 0 C3.96 0 7.92 0 12 0 C12 3.96 12 7.92 12 12 C8.04 12 4.08 12 0 12 C0 8.04 0 4.08 0 0 Z " fill="#F5F4F5" transform="translate(338,0)"/>
<path d="M0 0 C3.96 0 7.92 0 12 0 C12 3.96 12 7.92 12 12 C8.04 12 4.08 12 0 12 C0 8.04 0 4.08 0 0 Z " fill="#FEFEFE" transform="translate(301,0)"/>
<path d="M0 0 C3.96 0 7.92 0 12 0 C12 3.96 12 7.92 12 12 C8.04 12 4.08 12 0 12 C0 8.04 0 4.08 0 0 Z " fill="#FEFEFE" transform="translate(276,0)"/>
<path d="M0 0 C3.96 0 7.92 0 12 0 C12 3.96 12 7.92 12 12 C8.04 12 4.08 12 0 12 C0 8.04 0 4.08 0 0 Z " fill="#F5F5F5" transform="translate(238,0)"/>
<path d="M0 0 C3.96 0 7.92 0 12 0 C12 3.96 12 7.92 12 12 C8.04 12 4.08 12 0 12 C0 8.04 0 4.08 0 0 Z " fill="#F5F5F6" transform="translate(213,0)"/>
<path d="M0 0 C3.96 0 7.92 0 12 0 C12 3.96 12 7.92 12 12 C8.04 12 4.08 12 0 12 C0 8.04 0 4.08 0 0 Z " fill="#F5F5F6" transform="translate(188,0)"/>
<path d="M0 0 C3.96 0 7.92 0 12 0 C12 3.96 12 7.92 12 12 C8.04 12 4.08 12 0 12 C0 8.04 0 4.08 0 0 Z " fill="#F5F5F6" transform="translate(138,0)"/>
<path d="M0 0 C3.96 0 7.92 0 12 0 C12 3.96 12 7.92 12 12 C8.04 12 4.08 12 0 12 C0 8.04 0 4.08 0 0 Z " fill="#F5F5F6" transform="translate(88,0)"/>
<path d="M0 0 C2.83203125 0.03255208 5.6640625 0.06510417 8.49609375 0.09765625 C8.49609375 4.05765625 8.49609375 8.01765625 8.49609375 12.09765625 C4.53609375 12.09765625 0.57609375 12.09765625 -3.50390625 12.09765625 C-3.6015625 3.6015625 -3.6015625 3.6015625 -3.50390625 1.09765625 C-2.50390625 0.09765625 -2.50390625 0.09765625 0 0 Z " fill="#FEFEFE" transform="translate(304.50390625,924.90234375)"/>
<path d="M0 0 C2.83203125 0.03255208 5.6640625 0.06510417 8.49609375 0.09765625 C8.49609375 4.05765625 8.49609375 8.01765625 8.49609375 12.09765625 C4.53609375 12.09765625 0.57609375 12.09765625 -3.50390625 12.09765625 C-3.6015625 3.6015625 -3.6015625 3.6015625 -3.50390625 1.09765625 C-2.50390625 0.09765625 -2.50390625 0.09765625 0 0 Z " fill="#F5F4F5" transform="translate(479.50390625,461.90234375)"/>
<path d="M0 0 C8.49609375 -0.09765625 8.49609375 -0.09765625 11 0 C12 1 12 1 12.09765625 3.50390625 C12.06510417 6.3359375 12.03255208 9.16796875 12 12 C8.04 12 4.08 12 0 12 C0 8.04 0 4.08 0 0 Z " fill="#F5F4F5" transform="translate(426,438)"/>
<path d="M0 0 C8.49609375 -0.09765625 8.49609375 -0.09765625 11 0 C12 1 12 1 12.09765625 3.50390625 C12.06510417 6.3359375 12.03255208 9.16796875 12 12 C8.04 12 4.08 12 0 12 C0 8.04 0 4.08 0 0 Z " fill="#F4F4F5" transform="translate(401,438)"/>
<path d="M0 0 C2.83203125 0.03255208 5.6640625 0.06510417 8.49609375 0.09765625 C8.49609375 4.05765625 8.49609375 8.01765625 8.49609375 12.09765625 C4.53609375 12.09765625 0.57609375 12.09765625 -3.50390625 12.09765625 C-3.6015625 3.6015625 -3.6015625 3.6015625 -3.50390625 1.09765625 C-2.50390625 0.09765625 -2.50390625 0.09765625 0 0 Z " fill="#F5F4F5" transform="translate(354.50390625,437.90234375)"/>
<path d="M0 0 C2.83203125 0.03255208 5.6640625 0.06510417 8.49609375 0.09765625 C8.49609375 4.05765625 8.49609375 8.01765625 8.49609375 12.09765625 C4.53609375 12.09765625 0.57609375 12.09765625 -3.50390625 12.09765625 C-3.6015625 3.6015625 -3.6015625 3.6015625 -3.50390625 1.09765625 C-2.50390625 0.09765625 -2.50390625 0.09765625 0 0 Z " fill="#F5F5F6" transform="translate(1015.50390625,424.90234375)"/>
<path d="M0 0 C3.63 0 7.26 0 11 0 C11 4.29 11 8.58 11 13 C7.37 13 3.74 13 0 13 C0 8.71 0 4.42 0 0 Z " fill="#F5F4F5" transform="translate(151,312)"/>
<path d="M0 0 C2.57161458 0.03255208 5.14322917 0.06510417 7.71484375 0.09765625 C7.71484375 4.38765625 7.71484375 8.67765625 7.71484375 13.09765625 C4.08484375 13.09765625 0.45484375 13.09765625 -3.28515625 13.09765625 C-3.31202178 11.11856227 -3.33149 9.13936654 -3.34765625 7.16015625 C-3.35925781 6.05800781 -3.37085938 4.95585937 -3.3828125 3.8203125 C-3.25076835 0.13892172 -3.25076835 0.13892172 0 0 Z " fill="#F5F4F5" transform="translate(154.28515625,261.90234375)"/>
<path d="M0 0 C0.90492188 0.02320313 1.80984375 0.04640625 2.7421875 0.0703125 C5.1553125 0.1321875 5.1553125 0.1321875 7.6171875 0.1953125 C7.6171875 4.1553125 7.6171875 8.1153125 7.6171875 12.1953125 C3.6571875 12.1953125 -0.3028125 12.1953125 -4.3828125 12.1953125 C-4.578125 4.578125 -4.578125 4.578125 -4.3828125 2.1953125 C-2.3828125 0.1953125 -2.3828125 0.1953125 0 0 Z " fill="#F5F4F5" transform="translate(142.3828125,474.8046875)"/>
<path d="M0 0 C2.83203125 0.03255208 5.6640625 0.06510417 8.49609375 0.09765625 C8.49609375 4.05765625 8.49609375 8.01765625 8.49609375 12.09765625 C4.53609375 12.09765625 0.57609375 12.09765625 -3.50390625 12.09765625 C-3.6015625 3.6015625 -3.6015625 3.6015625 -3.50390625 1.09765625 C-2.50390625 0.09765625 -2.50390625 0.09765625 0 0 Z " fill="#F5F5F5" transform="translate(454.50390625,337.90234375)"/>
<path d="M0 0 C0 3.96 0 7.92 0 12 C-3.96 12 -7.92 12 -12 12 C-12.435501 5.99008616 -12.435501 5.99008616 -12 3 C-8.12160481 -0.35428773 -4.97155616 -1.24288904 0 0 Z " fill="#F5F4F5" transform="translate(550,900)"/>
<path d="M0 0 C1.65322266 0.01740234 1.65322266 0.01740234 3.33984375 0.03515625 C4.99693359 0.04869141 4.99693359 0.04869141 6.6875 0.0625 C7.54214844 0.07410156 8.39679688 0.08570313 9.27734375 0.09765625 C9.27734375 3.72765625 9.27734375 7.35765625 9.27734375 11.09765625 C5.31734375 11.09765625 1.35734375 11.09765625 -2.72265625 11.09765625 C-3.6015625 3.3828125 -3.6015625 3.3828125 -3.72265625 1.09765625 C-2.72265625 0.09765625 -2.72265625 0.09765625 0 0 Z " fill="#F5F5F6" transform="translate(128.72265625,1012.90234375)"/>
<path d="M0 0 C3.63 0 7.26 0 11 0 C11 3.96 11 7.92 11 12 C7.37 12 3.74 12 0 12 C-0.93391785 7.33041073 -0.80917656 4.58533383 0 0 Z " fill="#F5F5F6" transform="translate(1013,650)"/>
<path d="M0 0 C3.96 0 7.92 0 12 0 C12.33 3.63 12.66 7.26 13 11 C8.71 11 4.42 11 0 11 C0 7.37 0 3.74 0 0 Z " fill="#F5F4F5" transform="translate(388,549)"/>
<path d="M0 0 C0 4.29 0 8.58 0 13 C-3.63 13 -7.26 13 -11 13 C-11 9.04 -11 5.08 -11 1 C-8.5559375 0.7525 -8.5559375 0.7525 -6.0625 0.5 C-4.68771484 0.36078125 -4.68771484 0.36078125 -3.28515625 0.21875 C-1 0 -1 0 0 0 Z " fill="#F4F4F5" transform="translate(162,337)"/>
<path d="M0 0 C3.96 0 7.92 0 12 0 C12 3.63 12 7.26 12 11 C8.04 11 4.08 11 0 11 C0 7.37 0 3.74 0 0 Z " fill="#F5F5F6" transform="translate(676,1013)"/>
<path d="M0 0 C3.96 0 7.92 0 12 0 C12 3.63 12 7.26 12 11 C8.04 11 4.08 11 0 11 C0 7.37 0 3.74 0 0 Z " fill="#F5F5F6" transform="translate(651,1013)"/>
<path d="M0 0 C3.96 0 7.92 0 12 0 C12 3.63 12 7.26 12 11 C8.04 11 4.08 11 0 11 C0 7.37 0 3.74 0 0 Z " fill="#F5F5F5" transform="translate(576,1013)"/>
<path d="M0 0 C3.96 0 7.92 0 12 0 C12 3.63 12 7.26 12 11 C8.04 11 4.08 11 0 11 C0 7.37 0 3.74 0 0 Z " fill="#F5F4F5" transform="translate(526,1013)"/>
<path d="M0 0 C3.96 0 7.92 0 12 0 C12 3.63 12 7.26 12 11 C8.04 11 4.08 11 0 11 C0 7.37 0 3.74 0 0 Z " fill="#F5F5F6" transform="translate(501,1013)"/>
<path d="M0 0 C3.96 0 7.92 0 12 0 C12 3.63 12 7.26 12 11 C8.04 11 4.08 11 0 11 C0 7.37 0 3.74 0 0 Z " fill="#F5F4F6" transform="translate(426,1013)"/>
<path d="M0 0 C3.96 0 7.92 0 12 0 C12 3.63 12 7.26 12 11 C8.04 11 4.08 11 0 11 C0 7.37 0 3.74 0 0 Z " fill="#F5F5F6" transform="translate(401,1013)"/>
<path d="M0 0 C3.96 0 7.92 0 12 0 C12 3.63 12 7.26 12 11 C8.04 11 4.08 11 0 11 C0 7.37 0 3.74 0 0 Z " fill="#F5F5F6" transform="translate(351,1013)"/>
<path d="M0 0 C3.96 0 7.92 0 12 0 C12 3.63 12 7.26 12 11 C8.04 11 4.08 11 0 11 C0 7.37 0 3.74 0 0 Z " fill="#F5F4F5" transform="translate(301,1013)"/>
<path d="M0 0 C3.96 0 7.92 0 12 0 C12 3.63 12 7.26 12 11 C8.04 11 4.08 11 0 11 C0 7.37 0 3.74 0 0 Z " fill="#F5F5F6" transform="translate(101,1013)"/>
<path d="M0 0 C3.96 0 7.92 0 12 0 C12 3.63 12 7.26 12 11 C8.04 11 4.08 11 0 11 C0 7.37 0 3.74 0 0 Z " fill="#F4F4F5" transform="translate(613,549)"/>
<path d="M0 0 C3.96 0 7.92 0 12 0 C12 3.63 12 7.26 12 11 C8.04 11 4.08 11 0 11 C0 7.37 0 3.74 0 0 Z " fill="#F5F4F5" transform="translate(588,549)"/>
<path d="M0 0 C3.63 0 7.26 0 11 0 C11 3.96 11 7.92 11 12 C7.37 12 3.74 12 0 12 C0 8.04 0 4.08 0 0 Z " fill="#F5F5F6" transform="translate(1013,75)"/>
<path d="M0 0 C2.83203125 0.03255208 5.6640625 0.06510417 8.49609375 0.09765625 C8.49609375 3.72765625 8.49609375 7.35765625 8.49609375 11.09765625 C4.53609375 11.09765625 0.57609375 11.09765625 -3.50390625 11.09765625 C-3.6015625 3.3828125 -3.6015625 3.3828125 -3.50390625 1.09765625 C-2.50390625 0.09765625 -2.50390625 0.09765625 0 0 Z " fill="#FEFEFE" transform="translate(741.50390625,1012.90234375)"/>
<path d="M0 0 C3.96 0 7.92 0 12 0 C12 3.63 12 7.26 12 11 C8.04 11 4.08 11 0 11 C0 7.37 0 3.74 0 0 Z " fill="#F5F5F6" transform="translate(176,1013)"/>
<path d="M0 0 C3.63 0 7.26 0 11 0 C11 3.63 11 7.26 11 11 C7.04 11 3.08 11 -1 11 C-1.125 2.25 -1.125 2.25 0 0 Z " fill="#F5F5F6" transform="translate(152,1013)"/>
<path d="M0 0 C0 3.96 0 7.92 0 12 C-3.96 12 -7.92 12 -12 12 C-12.375 8.8125 -12.375 8.8125 -12 5 C-7.79680393 0.29642345 -6.5338512 0 0 0 Z " fill="#F4F4F5" transform="translate(725,775)"/>
<path d="M0 0 C2.97 0 5.94 0 9 0 C9 3.96 9 7.92 9 12 C5.04 12 1.08 12 -3 12 C-2.01 8.04 -1.02 4.08 0 0 Z " fill="#F4F4F5" transform="translate(816,625)"/>
<path d="M0 0 C9.46807065 0.61480978 9.46807065 0.61480978 11.8125 2.3125 C13.73503334 5.04452107 13.18260931 7.7739022 13 11 C9.04 11 5.08 11 1 11 C0.67 7.37 0.34 3.74 0 0 Z " fill="#F5F5F5" transform="translate(675,439)"/>
<path d="M0 0 C3.3 0 6.6 0 10 0 C9.67 3.96 9.34 7.92 9 12 C6.03 12 3.06 12 0 12 C0 8.04 0 4.08 0 0 Z " fill="#F5F4F5" transform="translate(563,650)"/>
<path d="M0 0 C2.97 0 5.94 0 9 0 C9 3.96 9 7.92 9 12 C6.03 12 3.06 12 0 12 C0 8.04 0 4.08 0 0 Z " fill="#F5F4F5" transform="translate(563,400)"/>
<path d="M0 0 C2.97 0 5.94 0 9 0 C9 3.96 9 7.92 9 12 C6.03 12 3.06 12 0 12 C0 8.04 0 4.08 0 0 Z " fill="#F5F4F5" transform="translate(563,375)"/>
<path d="M0 0 C1.65 0 3.3 0 5 0 C6.546875 1.609375 6.546875 1.609375 7.75 3.75 C8.15734375 4.44609375 8.5646875 5.1421875 8.984375 5.859375 C10 8 10 8 11 12 C7.37 12 3.74 12 0 12 C0 8.04 0 4.08 0 0 Z " fill="#F4F4F5" transform="translate(213,650)"/>
<path d="M0 0 C3.96 0 7.92 0 12 0 C12 2.64 12 5.28 12 8 C8.04 8 4.08 8 0 8 C0 5.36 0 2.72 0 0 Z " fill="#F4F4F4" transform="translate(538,675)"/>
<path d="M0 0 C3.63 0 7.26 0 11 0 C9.59664109 2.80671782 8.19972009 5.54188265 6.625 8.25 C6.22539062 8.95640625 5.82578125 9.6628125 5.4140625 10.390625 C4.71410156 11.18726563 4.71410156 11.18726563 4 12 C2.68 12 1.36 12 0 12 C0 8.04 0 4.08 0 0 Z " fill="#F4F4F4" transform="translate(163,225)"/>
<path d="M0 0 C0 2.64 0 5.28 0 8 C-3.96 8 -7.92 8 -12 8 C-12 5.69 -12 3.38 -12 1 C-7.93631321 0.22596442 -4.13574827 -0.0984702 0 0 Z " fill="#F4F3F4" transform="translate(513,317)"/>
<path d="M0 0 C3.96 0 7.92 0 12 0 C12 2.97 12 5.94 12 9 C8.80760355 8.20190089 6.60702336 7.41362874 3.75 5.9375 C3.04359375 5.57527344 2.3371875 5.21304688 1.609375 4.83984375 C1.07828125 4.56269531 0.5471875 4.28554687 0 4 C0 2.68 0 1.36 0 0 Z " fill="#F4F4F5" transform="translate(576,137)"/>
<path d="M0 0 C1.67667954 0.89822118 3.34117633 1.81921561 5 2.75 C5.928125 3.26046875 6.85625 3.7709375 7.8125 4.296875 C8.534375 4.85890625 9.25625 5.4209375 10 6 C10 7.32 10 8.64 10 10 C6.7 10 3.4 10 0 10 C0 6.7 0 3.4 0 0 Z " fill="#F4F4F5" transform="translate(438,877)"/>
<path d="M0 0 C2.475 0.99 2.475 0.99 5 2 C5 2.66 5 3.32 5 4 C5.763125 4.268125 6.52625 4.53625 7.3125 4.8125 C10 6 10 6 13 9 C8.71 9 4.42 9 0 9 C0 6.03 0 3.06 0 0 Z " fill="#F4F4F4" transform="translate(363,828)"/>
<path d="M0 0 C1.65 0 3.3 0 5 0 C5 3.96 5 7.92 5 12 C3.35 12 1.7 12 0 12 C0 8.04 0 4.08 0 0 Z " fill="#F5F4F5" transform="translate(163,450)"/>
<path d="M0 0 C4.99911924 0.47610659 7.97832683 2.03162219 12 5 C11.67 5.66 11.34 6.32 11 7 C7.04 7 3.08 7 -1 7 C-0.67 4.69 -0.34 2.38 0 0 Z " fill="#F3F3F4" transform="translate(551,318)"/>
<path d="M0 0 C0 4.29 0 8.58 0 13 C-2.31 13 -4.62 13 -7 13 C-6.38416344 11.01796291 -5.75706166 9.0394228 -5.125 7.0625 C-4.77695312 5.96035156 -4.42890625 4.85820313 -4.0703125 3.72265625 C-2.60688666 0 -2.60688666 0 0 0 Z " fill="#F3F3F3" transform="translate(850,524)"/>
<path d="M0 0 C3.96 0 7.92 0 12 0 C12 2.64 12 5.28 12 8 C8.04 6.02 4.08 4.04 0 2 C0 1.34 0 0.68 0 0 Z " fill="#F4F4F5" transform="translate(526,112)"/>
<path d="M0 0 C3.63 0 7.26 0 11 0 C11 1.98 11 3.96 11 6 C6.94393835 5.53199289 3.53411321 5.12046792 0 3 C0 2.01 0 1.02 0 0 Z " fill="#F4F3F4" transform="translate(664,175)"/>
<path d="M0 0 C0.99 0.99 1.98 1.98 3 3 C3 3.66 3 4.32 3 5 C3.61875 5.2475 4.2375 5.495 4.875 5.75 C7 7 7 7 9 11 C6.03 11 3.06 11 0 11 C0 7.37 0 3.74 0 0 Z " fill="#F4F4F4" transform="translate(263,726)"/>
<path d="M0 0 C0.33 0.66 0.66 1.32 1 2 C1.639375 2.309375 2.27875 2.61875 2.9375 2.9375 C5 4 5 4 7 7 C4.69 7 2.38 7 0 7 C0 4.69 0 2.38 0 0 Z " fill="#F2F2F2" transform="translate(351,817)"/>
<path d="M0 0 C0.74609375 1.734375 0.74609375 1.734375 1 4 C-0.65234375 6.140625 -0.65234375 6.140625 -2.9375 8.25 C-3.68902344 8.95640625 -4.44054687 9.6628125 -5.21484375 10.390625 C-5.80394531 10.92171875 -6.39304687 11.4528125 -7 12 C-7.66 11.67 -8.32 11.34 -9 11 C-8.51789062 10.45730469 -8.03578125 9.91460938 -7.5390625 9.35546875 C-6.90742187 8.64003906 -6.27578125 7.92460938 -5.625 7.1875 C-4.68527344 6.12595703 -4.68527344 6.12595703 -3.7265625 5.04296875 C-1.859401 2.91196181 -1.859401 2.91196181 0 0 Z " fill="#63B57A" transform="translate(699,547)"/>
<path d="M0 0 C2.475 0.495 2.475 0.495 5 1 C5.33 1.99 5.66 2.98 6 4 C4.02 4 2.04 4 0 4 C0 2.68 0 1.36 0 0 Z " fill="#F4F4F4" transform="translate(338,808)"/>
</svg>
